<svg width="800" height="400" viewBox="0 0 800 400" fill="none" xmlns="http://www.w3.org/2000/svg">
    <!-- 背景 -->
    <rect width="800" height="400" rx="12" fill="#F5F5F7"/>
    
    <!-- 浏览器窗口 -->
    <rect x="50" y="50" width="700" height="300" rx="8" fill="white" stroke="#E5E5EA" stroke-width="1"/>
    <rect x="50" y="50" width="700" height="40" rx="8 8 0 0" fill="#F8F8F8" stroke="#E5E5EA" stroke-width="1"/>
    
    <!-- 浏览器控制按钮 -->
    <circle cx="75" cy="70" r="6" fill="#FF605C"/>
    <circle cx="95" cy="70" r="6" fill="#FFBD44"/>
    <circle cx="115" cy="70" r="6" fill="#00CA4E"/>
    
    <!-- 导航栏 -->
    <rect x="50" y="90" width="700" height="60" fill="rgba(255, 255, 255, 0.8)" stroke="#E5E5EA" stroke-width="1"/>
    
    <!-- Logo -->
    <rect x="80" y="110" width="30" height="30" rx="6" fill="rgba(0, 122, 255, 0.1)"/>
    <path d="M95 105L102 109V117L95 121L88 117V109L95 105Z" stroke="#007AFF" stroke-width="1.5"/>
    <circle cx="95" cy="115" r="3" fill="#007AFF"/>
    
    <!-- 菜单项 -->
    <rect x="120" y="110" width="300" height="20" rx="4" fill="#F8F8F8"/>
    
    <!-- 搜索框 -->
    <rect x="600" y="110" width="120" height="30" rx="15" fill="#F8F8F8" stroke="#E5E5EA" stroke-width="1"/>
    <circle cx="615" cy="125" r="5" stroke="#8E8E93" stroke-width="1"/>
    <line x1="619" y1="129" x2="623" y2="133" stroke="#8E8E93" stroke-width="1"/>
    
    <!-- 主标题 -->
    <rect x="100" y="170" width="400" height="20" rx="2" fill="#1D1D1F"/>
    <rect x="100" y="200" width="250" height="10" rx="2" fill="#86868B"/>
    
    <!-- 工具卡片区域 -->
    <rect x="100" y="240" width="150" height="80" rx="8" fill="white" stroke="#E5E5EA" stroke-width="1"/>
    <rect x="110" y="250" width="30" height="30" rx="6" fill="rgba(0, 0, 0, 0.05)"/>
    <rect x="150" y="255" width="80" height="10" rx="2" fill="#1D1D1F"/>
    <rect x="150" y="270" width="40" height="6" rx="2" fill="#007AFF"/>
    <rect x="110" y="290" width="120" height="6" rx="2" fill="#86868B"/>
    <rect x="110" y="300" width="100" height="6" rx="2" fill="#86868B"/>
    
    <rect x="270" y="240" width="150" height="80" rx="8" fill="white" stroke="#E5E5EA" stroke-width="1"/>
    <rect x="280" y="250" width="30" height="30" rx="6" fill="rgba(52, 211, 153, 0.1)"/>
    <rect x="320" y="255" width="80" height="10" rx="2" fill="#1D1D1F"/>
    <rect x="320" y="270" width="40" height="6" rx="2" fill="#34D399"/>
    <rect x="280" y="290" width="120" height="6" rx="2" fill="#86868B"/>
    <rect x="280" y="300" width="100" height="6" rx="2" fill="#86868B"/>
    
    <rect x="440" y="240" width="150" height="80" rx="8" fill="white" stroke="#E5E5EA" stroke-width="1"/>
    <rect x="450" y="250" width="30" height="30" rx="6" fill="rgba(99, 102, 241, 0.1)"/>
    <rect x="490" y="255" width="80" height="10" rx="2" fill="#1D1D1F"/>
    <rect x="490" y="270" width="40" height="6" rx="2" fill="#6366F1"/>
    <rect x="450" y="290" width="120" height="6" rx="2" fill="#86868B"/>
    <rect x="450" y="300" width="100" height="6" rx="2" fill="#86868B"/>
    
    <rect x="610" y="240" width="150" height="80" rx="8" fill="white" stroke="#E5E5EA" stroke-width="1" opacity="0.6"/>
    <rect x="620" y="250" width="30" height="30" rx="6" fill="rgba(244, 127, 42, 0.1)" opacity="0.6"/>
    <rect x="660" y="255" width="80" height="10" rx="2" fill="#1D1D1F" opacity="0.6"/>
    <rect x="660" y="270" width="40" height="6" rx="2" fill="#F47F2A" opacity="0.6"/>
    <rect x="620" y="290" width="120" height="6" rx="2" fill="#86868B" opacity="0.6"/>
    <rect x="620" y="300" width="100" height="6" rx="2" fill="#86868B" opacity="0.6"/>
</svg> 